<svg width="440" height="354" viewBox="0 0 440 354" fill="none" xmlns="http://www.w3.org/2000/svg">
<path d="M231.1 255.2L231.1 110L268.94 110L268.94 255.2L231.1 255.2Z" fill="white"/>
<path d="M124.41 140.3V216.545C124.41 234.615 119.665 248.2 110.175 257.3C100.685 266.4 86.645 270.95 68.055 270.95C49.595 270.95 35.555 266.4 25.935 257.3C16.445 248.2 11.7 234.615 11.7 216.545V140.3H45.435V217.13C45.435 226.36 47.32 233.25 51.09 237.8C54.86 242.35 60.515 244.625 68.055 244.625C75.725 244.625 81.445 242.35 85.215 237.8C88.985 233.25 90.87 226.36 90.87 217.13V140.3H124.41Z" fill="white"/>
<path d="M219.32 73.8V219H177.3L134.62 140.46L123.84 118.9H123.62L124.5 145.74V219H91.06V73.8H133.08L175.76 152.34L186.54 173.9H186.76L185.88 147.06V73.8H219.32Z" fill="white"/>
<mask id="path-4-outside-1_21_156" maskUnits="userSpaceOnUse" x="250" y="70" width="186" height="214" fill="black">
<rect fill="white" x="250" y="70" width="186" height="214"/>
<path d="M332.9 276V232.5H427.1V200.1C425.9 198.3 424.8 196.6 423.8 195C422.8 193.2 421.3 190.7 419.3 187.5C417.1 184.1 413.8 179.1 409.4 172.5L347.6 78H287.6V197.1H258.2V232.5H287.6V276H332.9ZM385.7 197.1H332.3V137.1C332.3 134.1 332.2 130.7 332 126.9C331.8 122.9 331.7 119.4 331.7 116.4C331.5 113.4 331.4 111.8 331.4 111.6H332C333.6 114.6 335.2 117.5 336.8 120.3C338.2 122.9 339.7 125.6 341.3 128.4C342.7 131 344.4 133.8 346.4 136.8L379.4 188.1C380.2 189.5 380.9 190.5 381.5 191.1C382.1 191.7 383.5 193.7 385.7 197.1Z"/>
</mask>
<path d="M332.9 276V232.5H427.1V200.1C425.9 198.3 424.8 196.6 423.8 195C422.8 193.2 421.3 190.7 419.3 187.5C417.1 184.1 413.8 179.1 409.4 172.5L347.6 78H287.6V197.1H258.2V232.5H287.6V276H332.9ZM385.7 197.1H332.3V137.1C332.3 134.1 332.2 130.7 332 126.9C331.8 122.9 331.7 119.4 331.7 116.4C331.5 113.4 331.4 111.8 331.4 111.6H332C333.6 114.6 335.2 117.5 336.8 120.3C338.2 122.9 339.7 125.6 341.3 128.4C342.7 131 344.4 133.8 346.4 136.8L379.4 188.1C380.2 189.5 380.9 190.5 381.5 191.1C382.1 191.7 383.5 193.7 385.7 197.1Z" fill="white"/>
<path d="M332.9 276H336.9C336.9 278.209 335.109 280 332.9 280V276ZM332.9 232.5H328.9C328.9 230.291 330.691 228.5 332.9 228.5V232.5ZM427.1 232.5H431.1C431.1 234.709 429.309 236.5 427.1 236.5V232.5ZM427.1 200.1L430.428 197.881C430.866 198.538 431.1 199.31 431.1 200.1H427.1ZM423.8 195L420.408 197.12C420.372 197.062 420.337 197.003 420.303 196.943L423.8 195ZM419.3 187.5L422.658 185.327C422.67 185.345 422.681 185.362 422.692 185.38L419.3 187.5ZM409.4 172.5L406.072 174.719C406.065 174.709 406.059 174.699 406.052 174.689L409.4 172.5ZM347.6 78V74C348.95 74 350.209 74.6809 350.948 75.8107L347.6 78ZM287.6 78H283.6C283.6 75.7908 285.391 74 287.6 74V78ZM287.6 197.1H291.6C291.6 199.309 289.809 201.1 287.6 201.1V197.1ZM258.2 197.1H254.2C254.2 194.891 255.991 193.1 258.2 193.1V197.1ZM258.2 232.5V236.5C255.991 236.5 254.2 234.709 254.2 232.5H258.2ZM287.6 232.5V228.5C289.809 228.5 291.6 230.291 291.6 232.5H287.6ZM287.6 276V280C285.391 280 283.6 278.209 283.6 276H287.6ZM385.7 197.1L389.058 194.927C389.854 196.157 389.914 197.724 389.214 199.012C388.513 200.299 387.165 201.1 385.7 201.1V197.1ZM332.3 197.1V201.1C330.091 201.1 328.3 199.309 328.3 197.1H332.3ZM332 126.9L328.006 127.11L328.005 127.1L332 126.9ZM331.7 116.4L335.691 116.134C335.697 116.222 335.7 116.311 335.7 116.4H331.7ZM331.4 111.6H327.4C327.4 109.391 329.191 107.6 331.4 107.6V111.6ZM332 111.6V107.6C333.477 107.6 334.834 108.414 335.529 109.718L332 111.6ZM336.8 120.3L340.273 118.315C340.29 118.345 340.306 118.374 340.322 118.404L336.8 120.3ZM341.3 128.4L344.773 126.415C344.79 126.445 344.806 126.474 344.822 126.504L341.3 128.4ZM346.4 136.8L349.728 134.581C349.74 134.599 349.752 134.618 349.764 134.636L346.4 136.8ZM379.4 188.1L382.764 185.936C382.802 185.995 382.838 186.055 382.873 186.115L379.4 188.1ZM381.5 191.1L384.328 188.272L384.328 188.272L381.5 191.1ZM332.9 276H328.9V265.125H332.9H336.9V276H332.9ZM332.9 243.375H328.9V232.5H332.9H336.9V243.375H332.9ZM332.9 232.5V228.5H340.75V232.5V236.5H332.9V232.5ZM356.45 232.5V228.5H372.15V232.5V236.5H356.45V232.5ZM387.85 232.5V228.5H403.55V232.5V236.5H387.85V232.5ZM419.25 232.5V228.5H427.1V232.5V236.5H419.25V232.5ZM427.1 232.5H423.1V224.4H427.1H431.1V232.5H427.1ZM427.1 208.2H423.1V200.1H427.1H431.1V208.2H427.1ZM427.1 200.1L423.772 202.319C423.482 201.884 423.198 201.455 422.919 201.032L426.261 198.834L429.604 196.636C429.873 197.045 430.148 197.46 430.428 197.881L427.1 200.1ZM424.61 196.284L421.237 198.433C420.954 197.989 420.677 197.551 420.408 197.12L423.8 195L427.192 192.88C427.449 193.291 427.713 193.71 427.984 194.135L424.61 196.284ZM423.8 195L420.303 196.943C420.009 196.412 419.662 195.807 419.263 195.127L422.713 193.103L426.163 191.078C426.587 191.8 426.965 192.46 427.297 193.057L423.8 195ZM420.454 189.358L417.049 191.457C416.689 190.874 416.309 190.262 415.908 189.62L419.3 187.5L422.692 185.38C423.101 186.035 423.49 186.661 423.859 187.26L420.454 189.358ZM419.3 187.5L415.942 189.673C415.243 188.592 414.429 187.346 413.502 185.933L416.846 183.738L420.19 181.543C421.124 182.966 421.947 184.228 422.658 185.327L419.3 187.5ZM411.89 176.241L408.559 178.455C407.773 177.273 406.944 176.027 406.072 174.719L409.4 172.5L412.728 170.281C413.603 171.593 414.434 172.842 415.222 174.028L411.89 176.241ZM409.4 172.5L406.052 174.689L402.19 168.783L405.537 166.594L408.885 164.404L412.748 170.311L409.4 172.5ZM397.812 154.781L394.465 156.971L386.74 145.158L390.087 142.969L393.435 140.779L401.16 152.592L397.812 154.781ZM382.362 131.156L379.015 133.346L371.29 121.533L374.637 119.344L377.985 117.154L385.71 128.967L382.362 131.156ZM366.912 107.531L363.565 109.721L355.84 97.908L359.187 95.7187L362.535 93.5295L370.26 105.342L366.912 107.531ZM351.462 83.9062L348.115 86.0955L344.252 80.1893L347.6 78L350.948 75.8107L354.81 81.717L351.462 83.9062ZM347.6 78V82H340.1V78V74H347.6V78ZM325.1 78V82H310.1V78V74H325.1V78ZM295.1 78V82H287.6V78V74H295.1V78ZM287.6 78H291.6V85.4437H287.6H283.6V78H287.6ZM287.6 100.331H291.6V115.219H287.6H283.6V100.331H287.6ZM287.6 130.106H291.6V144.994H287.6H283.6V130.106H287.6ZM287.6 159.881H291.6V174.769H287.6H283.6V159.881H287.6ZM287.6 189.656H291.6V197.1H287.6H283.6V189.656H287.6ZM287.6 197.1V201.1H280.25V197.1V193.1H287.6V197.1ZM265.55 197.1V201.1H258.2V197.1V193.1H265.55V197.1ZM258.2 197.1H262.2V205.95H258.2H254.2V197.1H258.2ZM258.2 223.65H262.2V232.5H258.2H254.2V223.65H258.2ZM258.2 232.5V228.5H265.55V232.5V236.5H258.2V232.5ZM280.25 232.5V228.5H287.6V232.5V236.5H280.25V232.5ZM287.6 232.5H291.6V243.375H287.6H283.6V232.5H287.6ZM287.6 265.125H291.6V276H287.6H283.6V265.125H287.6ZM287.6 276V272H298.925V276V280H287.6V276ZM321.575 276V272H332.9V276V280H321.575V276ZM385.7 197.1L382.342 199.273C381.992 198.733 381.664 198.23 381.358 197.765L384.698 195.565L388.039 193.365C388.359 193.85 388.699 194.371 389.058 194.927L385.7 197.1ZM382.636 192.536L379.388 194.871C379.154 194.545 378.969 194.3 378.83 194.124C378.677 193.93 378.632 193.889 378.672 193.928L381.5 191.1L384.328 188.272C384.831 188.774 385.379 189.499 385.883 190.201L382.636 192.536ZM381.5 191.1L378.672 193.928C378.337 193.593 378.026 193.231 377.74 192.862L380.898 190.408L384.057 187.954C384.192 188.127 384.283 188.226 384.328 188.272L381.5 191.1ZM379.867 188.89L376.456 190.98C376.281 190.695 376.105 190.396 375.927 190.085L379.4 188.1L382.873 186.115C383.015 186.363 383.149 186.591 383.278 186.8L379.867 188.89ZM379.4 188.1L376.036 190.264L371.911 183.852L375.275 181.688L378.639 179.523L382.764 185.936L379.4 188.1ZM367.025 168.862L363.661 171.027L355.411 158.202L358.775 156.038L362.139 153.873L370.389 166.698L367.025 168.862ZM350.525 143.212L347.161 145.377L343.036 138.964L346.4 136.8L349.764 134.636L353.889 141.048L350.525 143.212ZM346.4 136.8L343.072 139.019C342.594 138.302 342.132 137.596 341.686 136.899L345.055 134.743L348.424 132.586C348.842 133.239 349.277 133.904 349.728 134.581L346.4 136.8ZM342.497 130.546L339.032 132.544C338.593 131.783 338.175 131.033 337.778 130.296L341.3 128.4L344.822 126.504C345.18 127.168 345.56 127.849 345.962 128.547L342.497 130.546ZM341.3 128.4L337.827 130.385C337.436 129.701 337.051 129.023 336.672 128.35L340.156 126.385L343.641 124.421C344.012 125.08 344.39 125.745 344.773 126.415L341.3 128.4ZM337.905 122.336L334.397 124.257C334.017 123.563 333.644 122.877 333.278 122.196L336.8 120.3L340.322 118.404C340.679 119.067 341.043 119.738 341.414 120.415L337.905 122.336ZM336.8 120.3L333.327 122.285C332.914 121.561 332.501 120.832 332.088 120.096L335.576 118.138L339.064 116.181C339.467 116.899 339.87 117.61 340.273 118.315L336.8 120.3ZM333.177 113.788L329.66 115.694C329.264 114.963 328.867 114.226 328.471 113.482L332 111.6L335.529 109.718C335.917 110.445 336.305 111.166 336.693 111.881L333.177 113.788ZM332 111.6V115.6H331.85V111.6V107.6H332V111.6ZM331.55 111.6V115.6H331.4V111.6V107.6H331.55V111.6ZM331.4 111.6H335.4C335.4 111.57 335.4 111.547 335.399 111.538C335.399 111.528 335.399 111.521 335.399 111.521C335.399 111.521 335.399 111.529 335.4 111.55C335.402 111.593 335.405 111.658 335.41 111.752C335.421 111.938 335.436 112.203 335.458 112.553L331.466 112.8L327.473 113.048C327.435 112.433 327.4 111.854 327.4 111.6H331.4ZM331.62 115.199L335.612 114.936C335.636 115.307 335.663 115.706 335.691 116.134L331.7 116.4L327.709 116.666C327.68 116.236 327.654 115.835 327.629 115.462L331.62 115.199ZM331.7 116.4H335.7C335.7 117.212 335.708 118.064 335.723 118.958L331.723 119.026L327.724 119.094C327.708 118.159 327.7 117.261 327.7 116.4H331.7ZM331.88 124.276L335.877 124.112C335.911 124.949 335.951 125.812 335.995 126.7L332 126.9L328.005 127.1C327.959 126.189 327.919 125.302 327.884 124.44L331.88 124.276ZM332 126.9L335.994 126.69C336.041 127.573 336.082 128.436 336.118 129.278L332.122 129.449L328.125 129.619C328.091 128.804 328.051 127.968 328.006 127.11L332 126.9ZM332.278 134.549L336.277 134.481C336.292 135.382 336.3 136.255 336.3 137.1H332.3H328.3C328.3 136.304 328.293 135.476 328.278 134.617L332.278 134.549ZM332.3 137.1H336.3V144.6H332.3H328.3V137.1H332.3ZM332.3 159.6H336.3V174.6H332.3H328.3V159.6H332.3ZM332.3 189.6H336.3V197.1H332.3H328.3V189.6H332.3ZM332.3 197.1V193.1H338.975V197.1V201.1H332.3V197.1ZM352.325 197.1V193.1H365.675V197.1V201.1H352.325V197.1ZM379.025 197.1V193.1H385.7V197.1V201.1H379.025V197.1ZM332.9 276H340.9C340.9 280.418 337.318 284 332.9 284V276ZM332.9 232.5H324.9C324.9 228.082 328.482 224.5 332.9 224.5V232.5ZM427.1 232.5H435.1C435.1 236.918 431.518 240.5 427.1 240.5V232.5ZM427.1 200.1L433.756 195.662C434.632 196.977 435.1 198.521 435.1 200.1H427.1ZM423.8 195L417.016 199.24C416.943 199.124 416.873 199.005 416.807 198.885L423.8 195ZM419.3 187.5L426.017 183.154C426.039 183.189 426.062 183.224 426.084 183.26L419.3 187.5ZM409.4 172.5L402.744 176.938C402.731 176.918 402.718 176.898 402.705 176.879L409.4 172.5ZM347.6 78V70C350.3 70 352.818 71.3618 354.295 73.6214L347.6 78ZM287.6 78H279.6C279.6 73.5817 283.182 70 287.6 70V78ZM287.6 197.1H295.6C295.6 201.518 292.018 205.1 287.6 205.1V197.1ZM258.2 197.1H250.2C250.2 192.682 253.782 189.1 258.2 189.1V197.1ZM258.2 232.5V240.5C253.782 240.5 250.2 236.918 250.2 232.5H258.2ZM287.6 232.5V224.5C292.018 224.5 295.6 228.082 295.6 232.5H287.6ZM287.6 276V284C283.182 284 279.6 280.418 279.6 276H287.6ZM385.7 197.1L392.417 192.754C394.009 195.215 394.128 198.349 392.727 200.923C391.327 203.497 388.631 205.1 385.7 205.1V197.1ZM332.3 197.1V205.1C327.882 205.1 324.3 201.518 324.3 197.1H332.3ZM332 126.9L324.011 127.32C324.011 127.313 324.01 127.306 324.01 127.299L332 126.9ZM331.7 116.4L339.682 115.868C339.694 116.045 339.7 116.222 339.7 116.4H331.7ZM331.4 111.6H323.4C323.4 107.182 326.982 103.6 331.4 103.6V111.6ZM332 111.6V103.6C334.954 103.6 337.668 105.228 339.059 107.835L332 111.6ZM336.8 120.3L343.746 116.331C343.779 116.389 343.812 116.448 343.844 116.507L336.8 120.3ZM341.3 128.4L348.246 124.431C348.279 124.489 348.312 124.548 348.344 124.607L341.3 128.4ZM346.4 136.8L353.056 132.362C353.081 132.399 353.105 132.435 353.128 132.472L346.4 136.8ZM379.4 188.1L386.128 183.772C386.204 183.89 386.277 184.009 386.346 184.131L379.4 188.1ZM381.5 191.1L387.157 185.443L387.157 185.443L381.5 191.1ZM332.9 276H324.9V265.125H332.9H340.9V276H332.9ZM332.9 243.375H324.9V232.5H332.9H340.9V243.375H332.9ZM332.9 232.5V224.5H340.75V232.5V240.5H332.9V232.5ZM356.45 232.5V224.5H372.15V232.5V240.5H356.45V232.5ZM387.85 232.5V224.5H403.55V232.5V240.5H387.85V232.5ZM419.25 232.5V224.5H427.1V232.5V240.5H419.25V232.5ZM427.1 232.5H419.1V224.4H427.1H435.1V232.5H427.1ZM427.1 208.2H419.1V200.1H427.1H435.1V208.2H427.1ZM427.1 200.1L420.444 204.538C420.149 204.096 419.861 203.66 419.577 203.229L426.261 198.834L432.946 194.438C433.21 194.84 433.48 195.248 433.756 195.662L427.1 200.1ZM424.61 196.284L417.863 200.582C417.574 200.129 417.292 199.681 417.016 199.24L423.8 195L430.584 190.76C430.835 191.161 431.093 191.57 431.358 191.986L424.61 196.284ZM423.8 195L416.807 198.885C416.53 198.388 416.2 197.811 415.813 197.151L422.713 193.103L429.613 189.054C430.049 189.796 430.443 190.485 430.793 191.115L423.8 195ZM420.454 189.358L413.643 193.556C413.289 192.981 412.913 192.375 412.516 191.74L419.3 187.5L426.084 183.26C426.497 183.921 426.891 184.555 427.264 185.161L420.454 189.358ZM419.3 187.5L412.583 191.846C411.89 190.775 411.082 189.536 410.158 188.128L416.846 183.738L423.533 179.348C424.471 180.777 425.3 182.046 426.017 183.154L419.3 187.5ZM411.89 176.241L405.227 180.669C404.443 179.488 403.615 178.245 402.744 176.938L409.4 172.5L416.056 168.062C416.932 169.376 417.764 170.626 418.554 171.814L411.89 176.241ZM409.4 172.5L402.705 176.879L398.842 170.972L405.537 166.594L412.233 162.215L416.095 168.121L409.4 172.5ZM397.812 154.781L391.117 159.16L383.392 147.347L390.087 142.969L396.783 138.59L404.508 150.403L397.812 154.781ZM382.362 131.156L375.667 135.535L367.942 123.722L374.637 119.344L381.333 114.965L389.058 126.778L382.362 131.156ZM366.912 107.531L360.217 111.91L352.492 100.097L359.187 95.7187L365.883 91.3402L373.608 103.153L366.912 107.531ZM351.462 83.9062L344.767 88.2848L340.905 82.3786L347.6 78L354.295 73.6214L358.158 79.5277L351.462 83.9062ZM347.6 78V86H340.1V78V70H347.6V78ZM325.1 78V86H310.1V78V70H325.1V78ZM295.1 78V86H287.6V78V70H295.1V78ZM287.6 78H295.6V85.4437H287.6H279.6V78H287.6ZM287.6 100.331H295.6V115.219H287.6H279.6V100.331H287.6ZM287.6 130.106H295.6V144.994H287.6H279.6V130.106H287.6ZM287.6 159.881H295.6V174.769H287.6H279.6V159.881H287.6ZM287.6 189.656H295.6V197.1H287.6H279.6V189.656H287.6ZM287.6 197.1V205.1H280.25V197.1V189.1H287.6V197.1ZM265.55 197.1V205.1H258.2V197.1V189.1H265.55V197.1ZM258.2 197.1H266.2V205.95H258.2H250.2V197.1H258.2ZM258.2 223.65H266.2V232.5H258.2H250.2V223.65H258.2ZM258.2 232.5V224.5H265.55V232.5V240.5H258.2V232.5ZM280.25 232.5V224.5H287.6V232.5V240.5H280.25V232.5ZM287.6 232.5H295.6V243.375H287.6H279.6V232.5H287.6ZM287.6 265.125H295.6V276H287.6H279.6V265.125H287.6ZM287.6 276V268H298.925V276V284H287.6V276ZM321.575 276V268H332.9V276V284H321.575V276ZM385.7 197.1L378.983 201.446C378.639 200.913 378.317 200.42 378.017 199.965L384.698 195.565L391.379 191.164C391.706 191.66 392.052 192.19 392.417 192.754L385.7 197.1ZM382.636 192.536L376.14 197.206C375.927 196.91 375.782 196.717 375.693 196.605C375.65 196.551 375.636 196.536 375.648 196.55C375.655 196.558 375.724 196.637 375.843 196.757L381.5 191.1L387.157 185.443C387.916 186.203 388.634 187.175 389.131 187.866L382.636 192.536ZM381.5 191.1L375.843 196.757C375.364 196.277 374.944 195.783 374.581 195.316L380.898 190.408L387.216 185.499C387.242 185.533 387.252 185.544 387.245 185.537C387.239 185.529 387.21 185.496 387.157 185.443L381.5 191.1ZM379.867 188.89L373.046 193.07C372.847 192.746 372.65 192.412 372.454 192.069L379.4 188.1L386.346 184.131C386.469 184.347 386.583 184.54 386.688 184.71L379.867 188.89ZM379.4 188.1L372.672 192.428L368.547 186.016L375.275 181.688L382.003 177.359L386.128 183.772L379.4 188.1ZM367.025 168.862L360.297 173.191L352.047 160.366L358.775 156.038L365.503 151.709L373.753 164.534L367.025 168.862ZM350.525 143.212L343.797 147.541L339.672 141.128L346.4 136.8L353.128 132.472L357.253 138.884L350.525 143.212ZM346.4 136.8L339.744 141.238C339.253 140.501 338.777 139.774 338.317 139.055L345.055 134.743L351.793 130.43C352.197 131.061 352.618 131.705 353.056 132.362L346.4 136.8ZM342.497 130.546L335.567 134.543C335.11 133.749 334.673 132.966 334.256 132.193L341.3 128.4L348.344 124.607C348.682 125.236 349.043 125.883 349.427 126.549L342.497 130.546ZM341.3 128.4L334.354 132.369C333.96 131.679 333.571 130.994 333.188 130.315L340.156 126.385L347.125 122.456C347.493 123.108 347.866 123.766 348.246 124.431L341.3 128.4ZM337.905 122.336L330.888 126.177C330.504 125.476 330.127 124.781 329.756 124.093L336.8 120.3L343.844 116.507C344.197 117.162 344.556 117.825 344.923 118.494L337.905 122.336ZM336.8 120.3L329.854 124.269C329.436 123.537 329.017 122.798 328.599 122.054L335.576 118.138L342.552 114.223C342.95 114.932 343.348 115.635 343.746 116.331L336.8 120.3ZM333.177 113.788L326.144 117.601C325.743 116.861 325.342 116.116 324.941 115.365L332 111.6L339.059 107.835C339.442 108.555 339.826 109.268 340.209 109.975L333.177 113.788ZM332 111.6V119.6H331.85V111.6V103.6H332V111.6ZM331.55 111.6V119.6H331.4V111.6V103.6H331.55V111.6ZM331.4 111.6H339.4C339.4 111.483 339.397 111.4 339.397 111.392C339.396 111.37 339.396 111.362 339.396 111.373C339.397 111.396 339.4 111.446 339.404 111.533C339.414 111.705 339.429 111.959 339.45 112.306L331.466 112.8L323.481 113.295C323.449 112.773 323.4 112.015 323.4 111.6H331.4ZM331.62 115.199L339.603 114.673C339.627 115.042 339.654 115.441 339.682 115.868L331.7 116.4L323.718 116.932C323.689 116.502 323.662 116.099 323.638 115.726L331.62 115.199ZM331.7 116.4H339.7C339.7 117.187 339.707 118.017 339.722 118.89L331.723 119.026L323.724 119.162C323.708 118.207 323.7 117.286 323.7 116.4H331.7ZM331.88 124.276L339.873 123.948C339.907 124.772 339.946 125.623 339.99 126.5L332 126.9L324.01 127.299C323.964 126.377 323.923 125.479 323.887 124.604L331.88 124.276ZM332 126.9L339.989 126.48C340.036 127.375 340.078 128.252 340.114 129.108L332.122 129.449L324.129 129.789C324.095 128.989 324.056 128.166 324.011 127.32L332 126.9ZM332.278 134.549L340.276 134.413C340.292 135.335 340.3 136.231 340.3 137.1H332.3H324.3C324.3 136.328 324.293 135.523 324.279 134.685L332.278 134.549ZM332.3 137.1H340.3V144.6H332.3H324.3V137.1H332.3ZM332.3 159.6H340.3V174.6H332.3H324.3V159.6H332.3ZM332.3 189.6H340.3V197.1H332.3H324.3V189.6H332.3ZM332.3 197.1V189.1H338.975V197.1V205.1H332.3V197.1ZM352.325 197.1V189.1H365.675V197.1V205.1H352.325V197.1ZM379.025 197.1V189.1H385.7V197.1V205.1H379.025V197.1Z" fill="black" mask="url(#path-4-outside-1_21_156)"/>
</svg>
